<svg width="1600" height="650" viewBox="0 0 1600 650" fill="none" xmlns="http://www.w3.org/2000/svg">
  <rect width="1600" height="650" fill="#081624"/>
  <rect width="1600" height="650" fill="url(#sky)"/>
  <ellipse cx="790" cy="517" rx="610" ry="118" fill="url(#waterGlow)" opacity="0.72"/>
  <ellipse cx="222" cy="238" rx="225" ry="184" fill="#E46A2D" opacity="0.3"/>
  <ellipse cx="1322" cy="251" rx="214" ry="174" fill="#FF8C3B" opacity="0.24"/>
  <ellipse cx="800" cy="210" rx="375" ry="198" fill="#79E8FF" opacity="0.4"/>
  <ellipse cx="1445" cy="475" rx="204" ry="136" fill="#60FFF2" opacity="0.34"/>
  <ellipse cx="420" cy="470" rx="180" ry="115" fill="#F3AF73" opacity="0.22"/>
  <ellipse cx="790" cy="438" rx="598" ry="60" fill="#F1B845" opacity="0.55"/>
  <ellipse cx="790" cy="495" rx="628" ry="24" fill="#D7F9FF" opacity="0.18"/>
  <g opacity="0.9">
    <circle cx="107" cy="211" r="11" fill="#FFF8E4"/>
    <circle cx="183" cy="376" r="14" fill="#FFF8E4"/>
    <circle cx="372" cy="195" r="8" fill="#FFF8E4"/>
    <circle cx="438" cy="324" r="14" fill="#FFF8E4"/>
    <circle cx="1018" cy="164" r="9" fill="#FFF8E4"/>
    <circle cx="1156" cy="303" r="8" fill="#FFF8E4"/>
    <circle cx="1245" cy="180" r="12" fill="#FFF8E4"/>
    <circle cx="1462" cy="230" r="15" fill="#FFF8E4"/>
    <circle cx="1357" cy="339" r="10" fill="#FFF8E4"/>
    <circle cx="997" cy="430" r="6" fill="#FFF8E4"/>
  </g>
  <g fill="#FDE9B2" opacity="0.95">
    <circle cx="85" cy="130" r="3"/>
    <circle cx="128" cy="160" r="2"/>
    <circle cx="146" cy="93" r="2"/>
    <circle cx="207" cy="70" r="2"/>
    <circle cx="245" cy="112" r="3"/>
    <circle cx="281" cy="172" r="2"/>
    <circle cx="311" cy="101" r="2"/>
    <circle cx="343" cy="144" r="2"/>
    <circle cx="407" cy="88" r="2"/>
    <circle cx="465" cy="136" r="2"/>
    <circle cx="522" cy="78" r="3"/>
    <circle cx="560" cy="122" r="2"/>
    <circle cx="604" cy="166" r="2"/>
    <circle cx="651" cy="112" r="2"/>
    <circle cx="691" cy="85" r="2"/>
    <circle cx="728" cy="149" r="3"/>
    <circle cx="771" cy="98" r="2"/>
    <circle cx="817" cy="132" r="2"/>
    <circle cx="861" cy="91" r="3"/>
    <circle cx="903" cy="145" r="2"/>
    <circle cx="947" cy="108" r="2"/>
    <circle cx="991" cy="71" r="2"/>
    <circle cx="1038" cy="121" r="3"/>
    <circle cx="1082" cy="84" r="2"/>
    <circle cx="1125" cy="144" r="2"/>
    <circle cx="1173" cy="103" r="3"/>
    <circle cx="1217" cy="67" r="2"/>
    <circle cx="1260" cy="136" r="2"/>
    <circle cx="1308" cy="95" r="2"/>
    <circle cx="1351" cy="126" r="3"/>
    <circle cx="1394" cy="79" r="2"/>
    <circle cx="1439" cy="116" r="2"/>
    <circle cx="1481" cy="89" r="2"/>
    <circle cx="1518" cy="152" r="3"/>
  </g>
  <path d="M673 404C749 382 851 381 930 404L899 461H706L673 404Z" fill="#102433"/>
  <ellipse cx="804" cy="404" rx="37" ry="58" fill="#2A1C1B" opacity="0.95"/>
  <ellipse cx="807" cy="354" rx="24" ry="24" fill="#2B201D"/>
  <path d="M767 340C729 319 695 299 659 272C680 336 706 374 763 388L767 340Z" fill="#F6A307"/>
  <path d="M784 338C751 320 725 306 699 286C716 335 735 366 783 380L784 338Z" fill="#F4C542" opacity="0.65"/>
  <path d="M811 340C821 353 832 367 844 381" stroke="#D7EAF7" stroke-width="7" stroke-linecap="round" opacity="0.8"/>
  <circle cx="807" cy="354" r="30" stroke="#D3EDF8" stroke-width="5" opacity="0.55"/>
  <g opacity="0.3">
    <ellipse cx="800" cy="540" rx="350" ry="26" fill="#A3F0FF"/>
    <ellipse cx="800" cy="572" rx="250" ry="12" fill="#A3F0FF"/>
  </g>
  <defs>
    <linearGradient id="sky" x1="800" y1="0" x2="800" y2="650" gradientUnits="userSpaceOnUse">
      <stop stop-color="#172239"/>
      <stop offset="0.48" stop-color="#15415E"/>
      <stop offset="1" stop-color="#1187A7"/>
    </linearGradient>
    <radialGradient id="waterGlow" cx="0" cy="0" r="1" gradientUnits="userSpaceOnUse" gradientTransform="translate(790 517) rotate(90) scale(118 610)">
      <stop stop-color="#7DF8FF" stop-opacity="0.95"/>
      <stop offset="1" stop-color="#7DF8FF" stop-opacity="0"/>
    </radialGradient>
  </defs>
</svg>
